<svg xmlns="http://www.w3.org/2000/svg" width="512" height="512" viewBox="0 0 512 512">
  <rect width="512" height="512" rx="76" fill="#081a3a"/>
  <rect x="48" y="48" width="416" height="416" rx="64" fill="#0f2a5c"/>
  <g fill="#ffffff">
    <path d="M220 112h72c20 0 36 16 36 36v198c0 28-22 50-50 50h-28c-28 0-50-22-50-50V148c0-20 16-36 36-36zm0 36c-3 0-4 2-4 4v194c0 8 6 14 14 14h62c8 0 14-6 14-14V152c0-3-2-4-4-4h-82z"/>
    <path d="M176 248h160v34H176z"/>
  </g>
  <text x="256" y="438" font-size="66" text-anchor="middle" fill="#ffffff" font-family="sans-serif" font-weight="800">SAKE</text>
</svg>
