<svg xmlns="http://www.w3.org/2000/svg" width="192" height="192" viewBox="0 0 192 192">
  <rect width="192" height="192" rx="28" fill="#081a3a"/>
  <rect x="18" y="18" width="156" height="156" rx="22" fill="#0f2a5c"/>
  <g fill="#ffffff">
    <path d="M82 42h28c8 0 14 6 14 14v74c0 10-8 18-18 18H96c-10 0-18-8-18-18V56c0-8 6-14 14-14zm0 14c-1 0-2 1-2 2v72c0 3 2 5 5 5h22c3 0 5-2 5-5V58c0-1-1-2-2-2H82z"/>
    <path d="M68 92h56v12H68z"/>
  </g>
  <text x="96" y="162" font-size="22" text-anchor="middle" fill="#ffffff" font-family="sans-serif" font-weight="700">SAKE</text>
</svg>
